<svg xmlns="http://www.w3.org/2000/svg" version="1.1" xmlns:xlink="http://www.w3.org/1999/xlink" xmlns:svgjs="http://svgjs.dev/svgjs" width="1500" height="1500" viewBox="0 0 1500 1500"><rect width="1500" height="1500" fill="#ffffff"></rect><g transform="matrix(0.6666666666666666,0,0,0.6666666666666666,249.39393939393938,571.6984639740477)"><svg viewBox="0 0 396 141" data-background-color="#ffffff" preserveAspectRatio="xMidYMid meet" height="534" width="1500" xmlns="http://www.w3.org/2000/svg" xmlns:xlink="http://www.w3.org/1999/xlink"><g id="tight-bounds" transform="matrix(1,0,0,1,0.2400000000000091,0.11942859454850918)"><svg viewBox="0 0 395.52 140.76114281090298" height="140.76114281090298" width="395.52"><g><svg viewBox="0 0 677.7352165845859 241.19838089007172" height="140.76114281090298" width="395.52"><g><rect width="15.075219355546531" height="241.19838089007172" x="227.6760722145197" y="0" fill="#0813a9" opacity="1" stroke-width="0" stroke="transparent" fill-opacity="1" class="rect-yte-0" data-fill-palette-color="primary" rx="1%" id="yte-0" data-palette-color="#0813a9"></rect></g><g transform="matrix(1,0,0,1,282.21521658458596,0.5999959723633452)"><svg viewBox="0 0 395.52 239.99838894534503" height="239.99838894534503" width="395.52"><g id="textblocktransform"><svg viewBox="0 0 395.52 239.99838894534503" height="239.99838894534503" width="395.52" id="textblock"><g><svg viewBox="0 0 395.52 167.16618806875633" height="167.16618806875633" width="395.52"><g transform="matrix(1,0,0,1,0,0)"><svg width="395.52" viewBox="3.7 -40.8 98.89 41.8" height="167.16618806875633" data-palette-color="#0813a9"><g class="wordmark-text-0" data-fill-palette-color="primary" id="text-0"><path d="M6.55-11.55L8.15-3.45Q11.05-1.45 16.3-1.45L16.3-1.45Q19.85-1.45 21.63-3.5 23.4-5.55 23.4-8.4L23.4-8.4Q23.4-9.9 23.15-10.93 22.9-11.95 22.08-13.25 21.25-14.55 19.45-15.85 17.65-17.15 14.75-18.6L14.75-18.6Q11.35-20.3 9.25-21.8 7.15-23.3 6.1-24.9 5.05-26.5 4.7-27.95 4.35-29.4 4.35-31.55L4.35-31.55Q4.35-35.95 7.88-38.38 11.4-40.8 16.2-40.8L16.2-40.8Q22.15-40.8 27.7-37.8L27.7-37.8 27.7-28.2Q26-27.9 24.85-28.2L24.85-28.2 23.25-36.85Q20.05-38.6 16.1-38.6L16.1-38.6Q13.45-38.6 11.63-37.02 9.8-35.45 9.8-32.6L9.8-32.6Q9.8-31 10-30.1 10.2-29.2 11-27.98 11.8-26.75 13.65-25.53 15.5-24.3 18.6-22.8L18.6-22.8Q29.3-17.6 29.3-10.4L29.3-10.4Q29.3-5.3 25.4-2.15 21.5 1 15.2 1L15.2 1Q8.95 1 3.7-1.95L3.7-1.95 3.7-11.55Q5.4-11.85 6.55-11.55L6.55-11.55ZM33.95-28.2L34-39.8 68.55-39.8 68.6-28.2Q67.5-28 66.75-28.2L66.75-28.2 64.4-37.25 54-37.25 54-2.2 59.05-1.7Q59.25-0.95 59.05 0.15L59.05 0.15Q55.9 0 51.45 0L51.45 0Q48 0 43.8 0.1L43.8 0.1Q43.5-0.8 43.8-1.7L43.8-1.7 48.45-2.3Q48.65-4.2 48.65-8.15L48.65-8.15 48.65-37.25 38.15-37.25 35.8-28.2Q35.05-28 33.95-28.2L33.95-28.2ZM72.55-39.95L72.55-39.95Q75.1-39.95 79.9-40.15 84.7-40.35 86.25-40.35L86.25-40.35 87.6-40.35Q94.15-40.35 97.35-37.68 100.55-35 100.55-30.65L100.55-30.65Q100.55-24.45 92.45-22.05L92.45-22.05 92.45-21.9Q97.15-21.2 99.87-18.23 102.59-15.25 102.59-11.1L102.59-11.1Q102.59-5.55 98.82-2.45 95.05 0.65 87.75 0.65L87.75 0.65Q85.75 0.65 81.27 0.33 76.8 0 74.15 0L74.15 0Q73.85 0 73.2 0.03 72.55 0.05 72.25 0.05L72.25 0.05Q71.95-0.85 72.25-1.75L72.25-1.75 76.4-2.3Q76.6-4.2 76.6-8.15L76.6-8.15 76.6-37.6 72.55-38.1Q72.35-38.85 72.55-39.95ZM85.95-20.3L85.95-20.3 81.95-20.3 81.95-2.2Q84.5-1.75 86-1.65L86-1.65Q92.05-1.65 94.35-3.93 96.65-6.2 96.65-11.05L96.65-11.05Q96.65-14.95 93.82-17.63 91-20.3 85.95-20.3ZM86.3-38.25L86.3-38.25Q83.8-38.25 82.15-37.9L82.15-37.9Q81.95-36 81.95-31.65L81.95-31.65 81.95-22.8 85.85-22.8Q90.5-22.8 92.62-24.7 94.75-26.6 94.75-30.35L94.75-30.35Q94.75-34.15 92.42-36.2 90.1-38.25 86.3-38.25Z" fill="#0813a9" data-fill-palette-color="primary"></path></g></svg></g></svg></g><g transform="matrix(1,0,0,1,19.775999999999982,206.63011308327606)"><svg viewBox="0 0 355.968 33.36827586206897" height="33.36827586206897" width="355.968"><g transform="matrix(1,0,0,1,0,0)"><svg width="355.968" viewBox="2.54 -40.5 437.52 41.01" height="33.36827586206897" data-palette-color="#0813a9"><path d="M2.54-3.37L5.66-8.84Q8.59-7.08 12.11-6.25 15.63-5.42 19.31-5.42L19.31-5.42Q21.8-5.42 23.46-5.76 25.12-6.1 26.12-6.64 27.12-7.18 27.54-7.86 27.95-8.54 27.95-9.25L27.95-9.25Q27.95-10.28 27.06-11.01 26.17-11.74 24.12-11.74L24.12-11.74Q23.17-11.74 22.07-11.62 20.97-11.5 19.76-11.36 18.55-11.23 17.25-11.11 15.94-10.99 14.6-10.99L14.6-10.99Q11.67-10.99 9.61-11.62 7.54-12.26 6.25-13.35 4.96-14.45 4.37-15.95 3.78-17.46 3.78-19.19L3.78-19.19Q3.78-21.39 4.81-23.24 5.83-25.1 7.74-26.45 9.64-27.81 12.34-28.56 15.04-29.32 18.36-29.32L18.36-29.32Q20.09-29.32 21.98-29.11 23.88-28.91 25.71-28.56 27.54-28.22 29.22-27.77 30.91-27.32 32.2-26.81L32.2-26.81 29.93-21.19Q27.17-22.22 24.43-22.81 21.68-23.41 18.77-23.41L18.77-23.41Q16.75-23.41 15.34-23.11 13.94-22.8 13.06-22.3 12.18-21.8 11.78-21.15 11.38-20.51 11.38-19.8L11.38-19.8Q11.38-19.29 11.58-18.87 11.79-18.46 12.27-18.15 12.74-17.85 13.51-17.69 14.28-17.53 15.41-17.53L15.41-17.53Q16.43-17.53 17.58-17.65 18.73-17.77 19.97-17.91 21.22-18.04 22.55-18.16 23.88-18.29 25.27-18.29L25.27-18.29Q27.86-18.29 29.8-17.68 31.74-17.07 33.01-15.97 34.28-14.87 34.91-13.38 35.55-11.89 35.55-10.13L35.55-10.13Q35.55-7.86 34.5-5.91 33.45-3.96 31.37-2.53 29.3-1.1 26.21-0.29 23.12 0.51 19.07 0.51L19.07 0.51Q16.58 0.51 14.26 0.21 11.94-0.1 9.84-0.62 7.74-1.15 5.9-1.86 4.05-2.56 2.54-3.37L2.54-3.37ZM46.38 0L46.38-23.39 39.43-23.39 39.43-28.81 46.38-28.81 46.38-37.77 53.61-37.77 53.61-28.81 60.57-28.81 60.57-23.39 53.61-23.39 53.61 0 46.38 0ZM66.79 0L66.79-40.5 74.02-40.5 74.02-26.1Q74.97-26.76 76.26-27.34 77.56-27.93 79.05-28.37 80.54-28.81 82.12-29.06 83.71-29.32 85.3-29.32L85.3-29.32Q88.96-29.32 92.02-28.25 95.09-27.17 97.29-25.22 99.48-23.27 100.72-20.54 101.95-17.82 101.95-14.53L101.95-14.53Q101.95-11.08 100.65-8.31 99.36-5.54 97.08-3.58 94.79-1.61 91.66-0.55 88.52 0.51 84.86 0.51L84.86 0.51Q83.3 0.51 81.77 0.32 80.24 0.12 78.84-0.22 77.44-0.56 76.2-1.04 74.97-1.51 74.02-2.08L74.02-2.08 74.02 0 66.79 0ZM74.02-19.04L74.02-9.06Q75.12-8.18 76.34-7.57 77.56-6.96 78.83-6.57 80.1-6.18 81.39-5.99 82.69-5.81 83.91-5.81L83.91-5.81Q86.4-5.81 88.34-6.48 90.28-7.15 91.61-8.33 92.94-9.5 93.65-11.08 94.36-12.67 94.36-14.53L94.36-14.53Q94.36-16.26 93.66-17.8 92.96-19.34 91.66-20.5 90.35-21.66 88.51-22.33 86.66-23 84.37-23L84.37-23Q82.91-23 81.44-22.72 79.98-22.44 78.62-21.92 77.27-21.41 76.08-20.68 74.9-19.95 74.02-19.04L74.02-19.04ZM107.46-16.7L107.46-22.12 129.85-22.12 129.85-16.7 107.46-16.7ZM142.06 0L142.06-23.39 135.1-23.39 135.1-28.81 142.06-28.81 142.06-37.77 149.28-37.77 149.28-28.81 156.24-28.81 156.24-23.39 149.28-23.39 149.28 0 142.06 0ZM161.29-14.5L161.29-14.5Q161.29-17.43 162.49-20.1 163.68-22.78 165.93-24.83 168.18-26.88 171.44-28.1 174.69-29.32 178.84-29.32L178.84-29.32Q182.97-29.32 186.28-28.09 189.59-26.86 191.89-24.71 194.2-22.56 195.43-19.65 196.67-16.75 196.67-13.43L196.67-13.43Q196.67-13.01 196.65-12.54 196.64-12.06 196.59-11.67L196.59-11.67 169.35-11.67Q169.81-10.38 170.85-9.3 171.89-8.23 173.45-7.45 175.01-6.67 177.06-6.24 179.11-5.81 181.6-5.81L181.6-5.81Q184.09-5.81 186.56-6.34 189.03-6.86 191.27-7.67L191.27-7.67 193.71-2.15Q192.3-1.49 190.84-0.99 189.39-0.49 187.82-0.16 186.24 0.17 184.52 0.34 182.8 0.51 180.9 0.51L180.9 0.51Q176.04 0.51 172.38-0.66 168.71-1.83 166.25-3.86 163.78-5.88 162.54-8.62 161.29-11.35 161.29-14.5ZM169.35-17.31L189-17.31Q188.61-18.51 187.79-19.54 186.97-20.58 185.75-21.35 184.53-22.12 182.92-22.56 181.31-23 179.38-23L179.38-23Q177.33-23 175.65-22.53 173.96-22.07 172.69-21.29 171.42-20.51 170.58-19.48 169.74-18.46 169.35-17.31L169.35-17.31ZM202.69-14.33L202.69-14.33Q202.69-17.5 203.85-20.25 205.01-23 207.25-25.01 209.48-27.03 212.72-28.17 215.95-29.32 220.1-29.32L220.1-29.32Q221.91-29.32 223.74-29.1 225.57-28.88 227.27-28.48 228.96-28.08 230.45-27.53 231.94-26.98 233.04-26.32L233.04-26.32 229.7-20.87Q227.33-21.97 225.22-22.49 223.11-23 220.93-23L220.93-23Q218.44-23 216.46-22.35 214.49-21.7 213.11-20.54 211.73-19.38 211.01-17.81 210.29-16.24 210.29-14.38L210.29-14.38Q210.29-12.52 211.06-10.95 211.83-9.38 213.23-8.24 214.63-7.1 216.62-6.46 218.61-5.81 221.05-5.81L221.05-5.81Q223.74-5.81 226.12-6.57 228.5-7.32 230.55-8.59L230.55-8.59 233.9-3.15Q232.6-2.37 231.09-1.7 229.57-1.03 227.85-0.54 226.13-0.05 224.24 0.23 222.35 0.51 220.32 0.51L220.32 0.51Q216.2 0.51 212.92-0.61 209.65-1.73 207.38-3.72 205.11-5.71 203.9-8.42 202.69-11.13 202.69-14.33ZM241.68 0L241.68-40.48 248.91-40.48 248.91-26.61Q251.18-27.86 253.97-28.59 256.77-29.32 259.85-29.32L259.85-29.32Q263.41-29.32 266.25-28.27 269.1-27.22 271.08-25.26 273.05-23.29 274.12-20.48 275.18-17.68 275.18-14.16L275.18-14.16 275.18 0 267.98 0 267.98-13.87Q267.98-15.92 267.32-17.61 266.66-19.31 265.39-20.53 264.12-21.75 262.3-22.42 260.48-23.1 258.19-23.1L258.19-23.1Q255.43-23.1 253.06-22.22 250.69-21.34 248.91-20L248.91-20 248.91 0 241.68 0ZM283.4-4.22L283.4-4.22Q283.4-5.2 283.81-6.07 284.21-6.93 284.97-7.58 285.72-8.23 286.8-8.59 287.87-8.96 289.21-8.96L289.21-8.96Q290.56-8.96 291.63-8.59 292.7-8.23 293.45-7.58 294.19-6.93 294.6-6.07 295-5.2 295-4.22L295-4.22Q295-3.25 294.6-2.38 294.19-1.51 293.45-0.88 292.7-0.24 291.63 0.13 290.56 0.51 289.21 0.51L289.21 0.51Q287.87 0.51 286.8 0.13 285.72-0.24 284.97-0.88 284.21-1.51 283.81-2.38 283.4-3.25 283.4-4.22ZM302.47-14.33L302.47-14.33Q302.47-17.5 303.63-20.25 304.79-23 307.02-25.01 309.25-27.03 312.49-28.17 315.72-29.32 319.87-29.32L319.87-29.32Q321.68-29.32 323.51-29.1 325.34-28.88 327.04-28.48 328.74-28.08 330.23-27.53 331.72-26.98 332.81-26.32L332.81-26.32 329.47-20.87Q327.1-21.97 324.99-22.49 322.88-23 320.71-23L320.71-23Q318.21-23 316.24-22.35 314.26-21.7 312.88-20.54 311.5-19.38 310.78-17.81 310.06-16.24 310.06-14.38L310.06-14.38Q310.06-12.52 310.83-10.95 311.6-9.38 313-8.24 314.41-7.1 316.4-6.46 318.39-5.81 320.83-5.81L320.83-5.81Q323.51-5.81 325.89-6.57 328.27-7.32 330.32-8.59L330.32-8.59 333.67-3.15Q332.37-2.37 330.86-1.7 329.35-1.03 327.63-0.54 325.91-0.05 324.01 0.23 322.12 0.51 320.09 0.51L320.09 0.51Q315.97 0.51 312.7-0.61 309.43-1.73 307.16-3.72 304.88-5.71 303.68-8.42 302.47-11.13 302.47-14.33ZM339.72-14.4L339.72-14.4Q339.72-17.5 340.98-20.21 342.24-22.92 344.57-24.95 346.9-26.98 350.21-28.15 353.52-29.32 357.64-29.32L357.64-29.32Q361.77-29.32 365.08-28.15 368.38-26.98 370.71-24.95 373.05-22.92 374.3-20.21 375.56-17.5 375.56-14.4L375.56-14.4Q375.56-11.3 374.3-8.59 373.05-5.88 370.71-3.86 368.38-1.83 365.08-0.66 361.77 0.51 357.64 0.51L357.64 0.51Q353.52 0.51 350.21-0.66 346.9-1.83 344.57-3.86 342.24-5.88 340.98-8.59 339.72-11.3 339.72-14.4ZM347.31-14.4L347.31-14.4Q347.31-12.67 348.01-11.12 348.71-9.57 350.04-8.39 351.37-7.2 353.28-6.51 355.2-5.81 357.64-5.81L357.64-5.81Q360.08-5.81 362-6.51 363.92-7.2 365.25-8.39 366.58-9.57 367.27-11.12 367.97-12.67 367.97-14.4L367.97-14.4Q367.97-16.14 367.27-17.7 366.58-19.26 365.25-20.45 363.92-21.63 362-22.33 360.08-23.02 357.64-23.02L357.64-23.02Q355.2-23.02 353.28-22.33 351.37-21.63 350.04-20.45 348.71-19.26 348.01-17.7 347.31-16.14 347.31-14.4ZM383.05 0L383.05-28.81 390.28-28.81 390.28-26.37Q392.99-28.03 395.57-28.67 398.14-29.32 400.61-29.32L400.61-29.32Q404.05-29.32 406.93-28.22 409.81-27.12 411.86-24.9L411.86-24.9Q413.45-26.12 414.99-26.97 416.53-27.81 418.06-28.33 419.6-28.86 421.19-29.09 422.78-29.32 424.46-29.32L424.46-29.32Q428-29.32 430.88-28.36 433.76-27.39 435.8-25.49 437.84-23.58 438.95-20.74 440.06-17.9 440.06-14.16L440.06-14.16 440.06 0 432.86 0 432.86-12.99Q432.86-15.36 432.19-17.22 431.52-19.09 430.31-20.37 429.1-21.66 427.43-22.33 425.75-23 423.75-23L423.75-23Q422.65-23 421.51-22.79 420.36-22.58 419.27-22.14 418.19-21.7 417.23-21.03 416.28-20.36 415.57-19.46L415.57-19.46 415.57 0 408.37 0 408.37-12.99Q408.37-15.36 407.7-17.22 407.03-19.09 405.82-20.37 404.61-21.66 402.91-22.33 401.22-23 399.19-23L399.19-23Q397.95-23 396.69-22.74 395.43-22.49 394.27-22.02 393.11-21.56 392.1-20.9 391.09-20.24 390.28-19.41L390.28-19.41 390.28 0 383.05 0Z" opacity="1" transform="matrix(1,0,0,1,0,0)" fill="#0813a9" class="slogan-text-1" data-fill-palette-color="secondary" id="text-1"></path></svg></g></svg></g></svg></g></svg></g><g transform="matrix(1,0,0,1,0,47.40557764503585)"><svg viewBox="0 0 188.2121472 146.38722560000002" height="146.38722560000002" width="188.2121472"><g><svg xmlns:x="http://ns.adobe.com/Extensibility/1.0/" xmlns:i="http://ns.adobe.com/AdobeIllustrator/10.0/" xmlns:graph="http://ns.adobe.com/Graphs/1.0/" xmlns="http://www.w3.org/2000/svg" xmlns:xlink="http://www.w3.org/1999/xlink" version="1.1" x="0" y="0" viewBox="5 11 54 42" enable-background="new 0 0 64 64" xml:space="preserve" height="146.38722560000002" width="188.2121472" class="icon-icon-0" data-fill-palette-color="accent" id="icon-0"><g fill="#0813a9" data-fill-palette-color="accent"><g fill="#0813a9" data-fill-palette-color="accent"><path d="M58 11H6A1 1 0 0 0 5 12V44A1 1 0 0 0 6 45H31V51H24A1 1 0 1 0 24 53H40A1 1 0 1 0 40 51H33V45H58A1 1 0 0 0 59 44V12A1 1 0 0 0 58 11M57 43H7V13H57z" fill="#0813a9" data-fill-palette-color="accent"></path><path d="M10 41H54A1 1 0 0 0 55 40V16A1 1 0 0 0 54 15H10A1 1 0 0 0 9 16V40A1 1 0 0 0 10 41M11 17H53V39H11z" fill="#0813a9" data-fill-palette-color="accent"></path><path d="M26.707 25.293A1 1 0 0 0 25.293 25.293L23.293 27.293A1 1 0 0 0 23.293 28.707L25.293 30.707A0.997 0.997 0 0 0 26.707 30.707 1 1 0 0 0 26.707 29.293L25.414 28 26.707 26.707A1 1 0 0 0 26.707 25.293" fill="#0813a9" data-fill-palette-color="accent"></path><path d="M38.707 25.293A0.999 0.999 0 1 0 37.293 26.707L38.586 28 37.293 29.293A0.999 0.999 0 1 0 38.707 30.707L40.707 28.707A1 1 0 0 0 40.707 27.293z" fill="#0813a9" data-fill-palette-color="accent"></path><path d="M34.447 23.105A1 1 0 0 0 33.105 23.552L29.105 31.552A1 1 0 1 0 30.895 32.447L34.895 24.447A1 1 0 0 0 34.447 23.105" fill="#0813a9" data-fill-palette-color="accent"></path></g></g></svg><g></g></g></svg></g></svg></g><defs></defs></svg><rect width="395.52" height="140.76114281090298" fill="none" stroke="none" visibility="hidden"></rect></g></svg></g></svg>